<mxfile host="app.diagrams.net" agent="Mozilla/5.0 (Windows NT 10.0; Win64; x64) AppleWebKit/537.36 (KHTML, like Gecko) Chrome/131.0.0.0 Safari/537.36 Edg/131.0.0.0" version="24.9.1">
  <diagram name="Page-1" id="9GhINJhexpfvpIPdTT9F">
    <mxGraphModel dx="1569" dy="456" grid="1" gridSize="10" guides="1" tooltips="1" connect="1" arrows="1" fold="1" page="1" pageScale="1" pageWidth="850" pageHeight="1100" math="0" shadow="0">
      <root>
        <mxCell id="0" />
        <mxCell id="1" parent="0" />
        <mxCell id="-2Uq6EaCfHkO4JYl11UL-4" style="edgeStyle=orthogonalEdgeStyle;rounded=0;orthogonalLoop=1;jettySize=auto;html=1;exitX=0.5;exitY=1;exitDx=0;exitDy=0;entryX=0.5;entryY=0;entryDx=0;entryDy=0;" edge="1" parent="1" source="-2Uq6EaCfHkO4JYl11UL-1" target="-2Uq6EaCfHkO4JYl11UL-2">
          <mxGeometry relative="1" as="geometry" />
        </mxCell>
        <mxCell id="-2Uq6EaCfHkO4JYl11UL-1" value="drv_api.cpp&lt;div&gt;&lt;br&gt;&lt;/div&gt;&lt;div&gt;drvLaunchKernelEx_common:&lt;/div&gt;&lt;div&gt;&amp;nbsp; 获取 halQueue : 来自stream&lt;/div&gt;&lt;div&gt;&amp;nbsp; 准备 halCommand_t command&lt;/div&gt;&lt;div&gt;&amp;nbsp; 准备executeKernelInfo info = command.kernelInfo&lt;br&gt;&lt;/div&gt;" style="rounded=1;whiteSpace=wrap;html=1;align=left;arcSize=6;" vertex="1" parent="1">
          <mxGeometry x="-80" y="50" width="300" height="120" as="geometry" />
        </mxCell>
        <mxCell id="-2Uq6EaCfHkO4JYl11UL-6" style="edgeStyle=orthogonalEdgeStyle;rounded=0;orthogonalLoop=1;jettySize=auto;html=1;" edge="1" parent="1" source="-2Uq6EaCfHkO4JYl11UL-2" target="-2Uq6EaCfHkO4JYl11UL-3">
          <mxGeometry relative="1" as="geometry" />
        </mxCell>
        <mxCell id="-2Uq6EaCfHkO4JYl11UL-2" value="&lt;div&gt;hal.cpp&lt;/div&gt;&lt;div&gt;&lt;br&gt;&lt;/div&gt;&lt;div&gt;launchCommand(halQueue, &amp;amp;command)&lt;/div&gt;" style="rounded=1;whiteSpace=wrap;html=1;align=left;" vertex="1" parent="1">
          <mxGeometry x="-52.5" y="230" width="245" height="60" as="geometry" />
        </mxCell>
        <mxCell id="-2Uq6EaCfHkO4JYl11UL-3" value="&lt;div&gt;hal.cpp&lt;/div&gt;&lt;div&gt;&lt;br&gt;&lt;/div&gt;&lt;div&gt;executeKernel(queue, cmd)&lt;br&gt;设置cmd的queue: execInfo-&amp;gt;halQueue = queue&lt;br&gt;创建cmdBuffer:&amp;nbsp; &amp;nbsp; &amp;nbsp;createCommandBuffer(processor, 1024*1024)&lt;/div&gt;" style="rounded=1;whiteSpace=wrap;html=1;align=left;arcSize=9;" vertex="1" parent="1">
          <mxGeometry x="-115" y="330" width="370" height="85" as="geometry" />
        </mxCell>
        <mxCell id="-2Uq6EaCfHkO4JYl11UL-7" value="&lt;div&gt;chip.cpp&lt;/div&gt;&lt;div&gt;&lt;br&gt;&lt;/div&gt;&lt;div&gt;executeKernel&lt;br&gt;设置cmd的queue: execInfo-&amp;gt;halQueue = queue&lt;br&gt;创建cmdBuffer:&amp;nbsp; &amp;nbsp; &amp;nbsp;createCommandBuffer(processor, 1024*1024)&lt;/div&gt;" style="rounded=1;whiteSpace=wrap;html=1;align=left;arcSize=9;" vertex="1" parent="1">
          <mxGeometry x="-115" y="470" width="370" height="85" as="geometry" />
        </mxCell>
      </root>
    </mxGraphModel>
  </diagram>
</mxfile>
